<svg width="120" height="120" viewBox="0 0 120 120" fill="none" xmlns="http://www.w3.org/2000/svg">
  <!-- Bamboo steamer basket base -->
  <ellipse cx="60" cy="88" rx="44" ry="12" fill="#C8B89A"/>
  <rect x="16" y="52" width="88" height="36" rx="8" fill="#E0D4BC"/>
  <rect x="16" y="52" width="88" height="8" rx="4" fill="#C8B89A"/>
  <!-- Basket weave lines -->
  <line x1="32" y1="60" x2="32" y2="88" stroke="#C8B89A" stroke-width="1.5"/>
  <line x1="48" y1="60" x2="48" y2="88" stroke="#C8B89A" stroke-width="1.5"/>
  <line x1="64" y1="60" x2="64" y2="88" stroke="#C8B89A" stroke-width="1.5"/>
  <line x1="80" y1="60" x2="80" y2="88" stroke="#C8B89A" stroke-width="1.5"/>
  <line x1="16" y1="68" x2="104" y2="68" stroke="#C8B89A" stroke-width="1.5"/>
  <line x1="16" y1="76" x2="104" y2="76" stroke="#C8B89A" stroke-width="1.5"/>
  <!-- Face -->
  <circle cx="60" cy="38" r="26" fill="#F0EAD6" stroke="#C8B89A" stroke-width="2"/>
  <!-- Sleeping eyes -->
  <path d="M 47 35 Q 50 32 53 35" stroke="#1A1A1A" stroke-width="2" stroke-linecap="round" fill="none"/>
  <path d="M 67 35 Q 70 32 73 35" stroke="#1A1A1A" stroke-width="2" stroke-linecap="round" fill="none"/>
  <!-- Sleeping mouth -->
  <path d="M 52 46 Q 60 50 68 46" stroke="#1A1A1A" stroke-width="2" stroke-linecap="round" fill="none"/>
  <!-- ZZZ -->
  <text x="72" y="28" font-family="Inter, sans-serif" font-size="8" fill="#ABABAB">z</text>
  <text x="76" y="22" font-family="Inter, sans-serif" font-size="10" fill="#ABABAB">z</text>
  <text x="81" y="15" font-family="Inter, sans-serif" font-size="12" fill="#ABABAB">z</text>
  <!-- Steam wisps (less active) -->
  <path d="M 45 26 Q 43 22 45 18" stroke="#C8B89A" stroke-width="1.5" stroke-linecap="round" fill="none"/>
  <path d="M 75 26 Q 77 22 75 18" stroke="#C8B89A" stroke-width="1.5" stroke-linecap="round" fill="none"/>
</svg>