<svg width="120" height="120" viewBox="0 0 120 120" fill="none" xmlns="http://www.w3.org/2000/svg">
  <!-- Bamboo steamer basket base -->
  <ellipse cx="60" cy="88" rx="44" ry="12" fill="#C8B89A"/>
  <rect x="16" y="52" width="88" height="36" rx="8" fill="#E0D4BC"/>
  <rect x="16" y="52" width="88" height="8" rx="4" fill="#C8B89A"/>
  <!-- Basket weave lines -->
  <line x1="32" y1="60" x2="32" y2="88" stroke="#C8B89A" stroke-width="1.5"/>
  <line x1="48" y1="60" x2="48" y2="88" stroke="#C8B89A" stroke-width="1.5"/>
  <line x1="64" y1="60" x2="64" y2="88" stroke="#C8B89A" stroke-width="1.5"/>
  <line x1="80" y1="60" x2="80" y2="88" stroke="#C8B89A" stroke-width="1.5"/>
  <line x1="16" y1="68" x2="104" y2="68" stroke="#C8B89A" stroke-width="1.5"/>
  <line x1="16" y1="76" x2="104" y2="76" stroke="#C8B89A" stroke-width="1.5"/>
  <!-- Face -->
  <circle cx="60" cy="38" r="26" fill="#F0EAD6" stroke="#C8B89A" stroke-width="2"/>
  <!-- Sad eyes -->
  <ellipse cx="50" cy="35" rx="3" ry="4" fill="#1A1A1A"/>
  <ellipse cx="70" cy="35" rx="3" ry="4" fill="#1A1A1A"/>
  <!-- Sad mouth -->
  <path d="M 50 48 Q 60 43 70 48" stroke="#C8102E" stroke-width="2" stroke-linecap="round" fill="none"/>
  <!-- Tear drop -->
  <ellipse cx="47" cy="43" rx="2" ry="3" fill="#2563EB" opacity="0.6"/>
  <!-- Steam wisps (empty, so less steam) -->
  <path d="M 40 24 Q 38 20 40 16" stroke="#C8B89A" stroke-width="1.5" stroke-linecap="round" fill="none"/>
  <path d="M 60 20 Q 58 16 60 12" stroke="#C8B89A" stroke-width="1.5" stroke-linecap="round" fill="none"/>
  <path d="M 80 24 Q 78 20 80 16" stroke="#C8B89A" stroke-width="1.5" stroke-linecap="round" fill="none"/>
</svg>