<svg width="48" height="48" viewBox="0 0 48 48" fill="none" xmlns="http://www.w3.org/2000/svg">
  <path d="M24 48C37.2548 48 48 37.2548 48 24C48 10.7452 37.2548 0 24 0C10.7452 0 0 10.7452 0 24C0 37.2548 10.7452 48 24 48Z" fill="#00B14F"/>
  <path d="M24.5 12C19.2533 12 15 16.2533 15 21.5C15 26.7467 19.2533 31 24.5 31C29.7467 31 34 26.7467 34 21.5C34 16.2533 29.7467 12 24.5 12ZM24.5 28C20.9107 28 18 25.0893 18 21.5C18 17.9107 20.9107 15 24.5 15C28.0893 15 31 17.9107 31 21.5C31 25.0893 28.0893 28 24.5 28Z" fill="white"/>
  <path d="M24.5 17C22.0147 17 20 19.0147 20 21.5C20 23.9853 22.0147 26 24.5 26C26.9853 26 29 23.9853 29 21.5C29 19.0147 26.9853 17 24.5 17Z" fill="white"/>
</svg>
